<?xml version="1.0" encoding="UTF-8" standalone="no"?>
<!DOCTYPE svg PUBLIC "-//W3C//DTD SVG 1.1//EN"
 "http://www.w3.org/Graphics/SVG/1.1/DTD/svg11.dtd">
<!-- Generated by graphviz version 2.43.0 (0)
 -->
<!-- Title: BranchControl Pages: 1 -->
<svg width="1670pt" height="791pt"
 viewBox="0.00 0.00 1670.04 791.42" xmlns="http://www.w3.org/2000/svg" xmlns:xlink="http://www.w3.org/1999/xlink">
<g id="graph0" class="graph" transform="scale(1 1) rotate(0) translate(4 787.42)">
<title>BranchControl</title>
<polygon fill="white" stroke="transparent" points="-4,4 -4,-787.42 1666.04,-787.42 1666.04,4 -4,4"/>
<text text-anchor="middle" x="831.02" y="-7.8" font-family="Times,serif" font-size="14.00">BranchControl</text>
<!-- n9 -->
<g id="node1" class="node">
<title>n9</title>
<polygon fill="none" stroke="black" points="322.08,-314.96 322.08,-329.87 230.25,-340.42 100.39,-340.42 8.56,-329.87 8.56,-314.96 100.39,-304.42 230.25,-304.42 322.08,-314.96"/>
<text text-anchor="middle" x="165.32" y="-318.72" font-family="Times,serif" font-size="14.00">ACTUALLY_TAKEN_BRANCH</text>
</g>
<!-- c28 -->
<g id="node17" class="node">
<title>c28</title>
<polygon fill="none" stroke="black" points="433.64,-251.42 433.64,-297.42 548.64,-297.42 548.64,-251.42 433.64,-251.42"/>
<text text-anchor="middle" x="447.14" y="-282.22" font-family="Times,serif" font-size="14.00">A</text>
<polyline fill="none" stroke="black" points="433.64,-274.42 460.64,-274.42 "/>
<text text-anchor="middle" x="447.14" y="-259.22" font-family="Times,serif" font-size="14.00">B</text>
<polyline fill="none" stroke="black" points="460.64,-251.42 460.64,-297.42 "/>
<text text-anchor="middle" x="491.64" y="-278.22" font-family="Times,serif" font-size="14.00">$2439</text>
<text text-anchor="middle" x="491.64" y="-263.22" font-family="Times,serif" font-size="14.00">$ne</text>
<polyline fill="none" stroke="black" points="522.64,-251.42 522.64,-297.42 "/>
<text text-anchor="middle" x="535.64" y="-270.72" font-family="Times,serif" font-size="14.00">Y</text>
</g>
<!-- n9&#45;&gt;c28 -->
<g id="edge33" class="edge">
<title>n9:e&#45;&gt;c28:w</title>
<path fill="none" stroke="black" d="M323.32,-322.42C325.94,-322.42 396.01,-297.96 422.34,-289.36"/>
<polygon fill="black" stroke="black" points="423.57,-292.65 432.14,-286.42 421.56,-285.94 423.57,-292.65"/>
</g>
<!-- c37 -->
<g id="node26" class="node">
<title>c37</title>
<polygon fill="none" stroke="black" points="651.64,-469.92 651.64,-538.92 766.64,-538.92 766.64,-469.92 651.64,-469.92"/>
<text text-anchor="middle" x="665.14" y="-523.72" font-family="Times,serif" font-size="14.00">A</text>
<polyline fill="none" stroke="black" points="651.64,-515.92 678.64,-515.92 "/>
<text text-anchor="middle" x="665.14" y="-500.72" font-family="Times,serif" font-size="14.00">B</text>
<polyline fill="none" stroke="black" points="651.64,-492.92 678.64,-492.92 "/>
<text text-anchor="middle" x="665.14" y="-477.72" font-family="Times,serif" font-size="14.00">S</text>
<polyline fill="none" stroke="black" points="678.64,-469.92 678.64,-538.92 "/>
<text text-anchor="middle" x="709.64" y="-508.22" font-family="Times,serif" font-size="14.00">$4483</text>
<text text-anchor="middle" x="709.64" y="-493.22" font-family="Times,serif" font-size="14.00">$mux</text>
<polyline fill="none" stroke="black" points="740.64,-469.92 740.64,-538.92 "/>
<text text-anchor="middle" x="753.64" y="-500.72" font-family="Times,serif" font-size="14.00">Y</text>
</g>
<!-- n9&#45;&gt;c37 -->
<g id="edge34" class="edge">
<title>n9:e&#45;&gt;c37:w</title>
<path fill="none" stroke="black" d="M323.32,-322.42C461.01,-322.42 450.47,-448.75 579.64,-496.42 606.43,-506.3 617.01,-504.95 641.51,-504.51"/>
<polygon fill="black" stroke="black" points="641.68,-508.01 651.64,-504.42 641.61,-501.01 641.68,-508.01"/>
</g>
<!-- c38 -->
<g id="node27" class="node">
<title>c38</title>
<polygon fill="none" stroke="black" points="433.64,-74.92 433.64,-143.92 548.64,-143.92 548.64,-74.92 433.64,-74.92"/>
<text text-anchor="middle" x="447.14" y="-128.72" font-family="Times,serif" font-size="14.00">A</text>
<polyline fill="none" stroke="black" points="433.64,-120.92 460.64,-120.92 "/>
<text text-anchor="middle" x="447.14" y="-105.72" font-family="Times,serif" font-size="14.00">B</text>
<polyline fill="none" stroke="black" points="433.64,-97.92 460.64,-97.92 "/>
<text text-anchor="middle" x="447.14" y="-82.72" font-family="Times,serif" font-size="14.00">S</text>
<polyline fill="none" stroke="black" points="460.64,-74.92 460.64,-143.92 "/>
<text text-anchor="middle" x="491.64" y="-113.22" font-family="Times,serif" font-size="14.00">$2437</text>
<text text-anchor="middle" x="491.64" y="-98.22" font-family="Times,serif" font-size="14.00">$mux</text>
<polyline fill="none" stroke="black" points="522.64,-74.92 522.64,-143.92 "/>
<text text-anchor="middle" x="535.64" y="-105.72" font-family="Times,serif" font-size="14.00">Y</text>
</g>
<!-- n9&#45;&gt;c38 -->
<g id="edge35" class="edge">
<title>n9:e&#45;&gt;c38:w</title>
<path fill="none" stroke="black" d="M323.32,-322.42C355.81,-322.42 332.34,-206.53 348.64,-178.42 364.03,-151.88 382.41,-158.48 402.64,-135.42 416.52,-119.59 410.21,-96.37 422.07,-88.86"/>
<polygon fill="black" stroke="black" points="423.25,-92.18 432.14,-86.42 421.6,-85.37 423.25,-92.18"/>
</g>
<!-- n10 -->
<g id="node2" class="node">
<title>n10</title>
<polygon fill="none" stroke="black" points="1581.66,-169.96 1581.66,-184.87 1520.36,-195.42 1433.67,-195.42 1372.38,-184.87 1372.38,-169.96 1433.67,-159.42 1520.36,-159.42 1581.66,-169.96"/>
<text text-anchor="middle" x="1477.02" y="-173.72" font-family="Times,serif" font-size="14.00">ADJUST_NEXT_PC</text>
</g>
<!-- n11 -->
<g id="node3" class="node">
<title>n11</title>
<polygon fill="none" stroke="black" points="269.55,-52.96 269.55,-67.87 208.5,-78.42 122.15,-78.42 61.09,-67.87 61.09,-52.96 122.15,-42.42 208.5,-42.42 269.55,-52.96"/>
<text text-anchor="middle" x="165.32" y="-56.72" font-family="Times,serif" font-size="14.00">BRANCH_TARGET</text>
</g>
<!-- c33 -->
<g id="node22" class="node">
<title>c33</title>
<polygon fill="none" stroke="black" points="651.64,-180.92 651.64,-249.92 766.64,-249.92 766.64,-180.92 651.64,-180.92"/>
<text text-anchor="middle" x="665.14" y="-234.72" font-family="Times,serif" font-size="14.00">A</text>
<polyline fill="none" stroke="black" points="651.64,-226.92 678.64,-226.92 "/>
<text text-anchor="middle" x="665.14" y="-211.72" font-family="Times,serif" font-size="14.00">B</text>
<polyline fill="none" stroke="black" points="651.64,-203.92 678.64,-203.92 "/>
<text text-anchor="middle" x="665.14" y="-188.72" font-family="Times,serif" font-size="14.00">S</text>
<polyline fill="none" stroke="black" points="678.64,-180.92 678.64,-249.92 "/>
<text text-anchor="middle" x="709.64" y="-219.22" font-family="Times,serif" font-size="14.00">$4459</text>
<text text-anchor="middle" x="709.64" y="-204.22" font-family="Times,serif" font-size="14.00">$mux</text>
<polyline fill="none" stroke="black" points="740.64,-180.92 740.64,-249.92 "/>
<text text-anchor="middle" x="753.64" y="-211.72" font-family="Times,serif" font-size="14.00">Y</text>
</g>
<!-- n11&#45;&gt;c33 -->
<g id="edge3" class="edge">
<title>n11:e&#45;&gt;c33:w</title>
<path fill="none" stroke="black" stroke-width="3" d="M270.32,-60.42C399.87,-60.42 450.24,15.71 561.64,-50.42 577.49,-59.83 619.22,-181.22 643.15,-209.54"/>
<polygon fill="black" stroke="black" stroke-width="3" points="641.43,-212.6 651.64,-215.42 645.41,-206.85 641.43,-212.6"/>
<text text-anchor="middle" x="491.14" y="-54.22" font-family="Times,serif" font-size="14.00">&lt;64&gt;</text>
</g>
<!-- n11&#45;&gt;c38 -->
<g id="edge4" class="edge">
<title>n11:e&#45;&gt;c38:w</title>
<path fill="none" stroke="black" stroke-width="3" d="M270.32,-60.42C329.94,-60.42 349.04,-56.33 402.64,-82.42 414.63,-88.25 415.23,-100.52 422.28,-106.29"/>
<polygon fill="black" stroke="black" stroke-width="3" points="421.55,-109.73 432.14,-109.42 423.67,-103.06 421.55,-109.73"/>
<text text-anchor="middle" x="375.64" y="-86.22" font-family="Times,serif" font-size="14.00">&lt;64&gt;</text>
</g>
<!-- n12 -->
<g id="node4" class="node">
<title>n12</title>
<polygon fill="none" stroke="black" points="1662.06,-534.96 1662.06,-549.87 1553.66,-560.42 1400.37,-560.42 1291.98,-549.87 1291.98,-534.96 1400.37,-524.42 1553.66,-524.42 1662.06,-534.96"/>
<text text-anchor="middle" x="1477.02" y="-538.72" font-family="Times,serif" font-size="14.00">BRANCH_WAS_ACTUALLY_TAKEN</text>
</g>
<!-- n13 -->
<g id="node5" class="node">
<title>n13</title>
<polygon fill="none" stroke="black" points="1524.69,-423.96 1524.69,-438.87 1496.77,-449.42 1457.27,-449.42 1429.34,-438.87 1429.34,-423.96 1457.27,-413.42 1496.77,-413.42 1524.69,-423.96"/>
<text text-anchor="middle" x="1477.02" y="-427.72" font-family="Times,serif" font-size="14.00">FLUSH</text>
</g>
<!-- x1 -->
<g id="node28" class="node">
<title>x1</title>
<path fill="none" stroke="black" d="M1212.5,-514.42C1212.5,-514.42 1182.5,-514.42 1182.5,-514.42 1176.5,-514.42 1170.5,-508.42 1170.5,-502.42 1170.5,-502.42 1170.5,-490.42 1170.5,-490.42 1170.5,-484.42 1176.5,-478.42 1182.5,-478.42 1182.5,-478.42 1212.5,-478.42 1212.5,-478.42 1218.5,-478.42 1224.5,-484.42 1224.5,-490.42 1224.5,-490.42 1224.5,-502.42 1224.5,-502.42 1224.5,-508.42 1218.5,-514.42 1212.5,-514.42"/>
<text text-anchor="middle" x="1197.5" y="-492.72" font-family="Times,serif" font-size="14.00">BUF</text>
</g>
<!-- n13&#45;&gt;x1 -->
<g id="edge7" class="edge">
<title>n13:e&#45;&gt;x1:w</title>
<path fill="none" stroke="black" d="M1526.02,-431.42C1534.03,-431.42 1530.7,-443.76 1525.02,-449.42 1506.65,-467.71 1316.28,-452.32 1292,-461.42 1256.28,-474.8 1260.55,-501.96 1224.5,-514.42 1201.82,-522.26 1187.94,-530.91 1170.5,-514.42 1168.14,-512.18 1166.2,-508.79 1165.28,-505.55"/>
<polygon fill="black" stroke="black" points="1168.49,-506.96 1169.5,-496.42 1162.13,-504.03 1168.49,-506.96"/>
</g>
<!-- n14 -->
<g id="node6" class="node">
<title>n14</title>
<polygon fill="none" stroke="black" points="329.15,-384.96 329.15,-399.87 233.18,-410.42 97.46,-410.42 1.49,-399.87 1.49,-384.96 97.46,-374.42 233.18,-374.42 329.15,-384.96"/>
<text text-anchor="middle" x="165.32" y="-388.72" font-family="Times,serif" font-size="14.00">IS_A_BRANCH_INSTRUCTION</text>
</g>
<!-- c35 -->
<g id="node24" class="node">
<title>c35</title>
<polygon fill="none" stroke="black" points="1140,-390.92 1140,-459.92 1255,-459.92 1255,-390.92 1140,-390.92"/>
<text text-anchor="middle" x="1153.5" y="-444.72" font-family="Times,serif" font-size="14.00">A</text>
<polyline fill="none" stroke="black" points="1140,-436.92 1167,-436.92 "/>
<text text-anchor="middle" x="1153.5" y="-421.72" font-family="Times,serif" font-size="14.00">B</text>
<polyline fill="none" stroke="black" points="1140,-413.92 1167,-413.92 "/>
<text text-anchor="middle" x="1153.5" y="-398.72" font-family="Times,serif" font-size="14.00">S</text>
<polyline fill="none" stroke="black" points="1167,-390.92 1167,-459.92 "/>
<text text-anchor="middle" x="1198" y="-429.22" font-family="Times,serif" font-size="14.00">$4474</text>
<text text-anchor="middle" x="1198" y="-414.22" font-family="Times,serif" font-size="14.00">$mux</text>
<polyline fill="none" stroke="black" points="1229,-390.92 1229,-459.92 "/>
<text text-anchor="middle" x="1242" y="-421.72" font-family="Times,serif" font-size="14.00">Y</text>
</g>
<!-- n14&#45;&gt;c35 -->
<g id="edge8" class="edge">
<title>n14:e&#45;&gt;c35:w</title>
<path fill="none" stroke="black" d="M330.32,-392.42C686.78,-392.42 778.38,-402.23 1129.79,-402.42"/>
<polygon fill="black" stroke="black" points="1130,-405.92 1140,-402.42 1130,-398.92 1130,-405.92"/>
</g>
<!-- c36 -->
<g id="node25" class="node">
<title>c36</title>
<polygon fill="none" stroke="black" points="935,-142.92 935,-211.92 1050,-211.92 1050,-142.92 935,-142.92"/>
<text text-anchor="middle" x="948.5" y="-196.72" font-family="Times,serif" font-size="14.00">A</text>
<polyline fill="none" stroke="black" points="935,-188.92 962,-188.92 "/>
<text text-anchor="middle" x="948.5" y="-173.72" font-family="Times,serif" font-size="14.00">B</text>
<polyline fill="none" stroke="black" points="935,-165.92 962,-165.92 "/>
<text text-anchor="middle" x="948.5" y="-150.72" font-family="Times,serif" font-size="14.00">S</text>
<polyline fill="none" stroke="black" points="962,-142.92 962,-211.92 "/>
<text text-anchor="middle" x="993" y="-181.22" font-family="Times,serif" font-size="14.00">$4477</text>
<text text-anchor="middle" x="993" y="-166.22" font-family="Times,serif" font-size="14.00">$mux</text>
<polyline fill="none" stroke="black" points="1024,-142.92 1024,-211.92 "/>
<text text-anchor="middle" x="1037" y="-173.72" font-family="Times,serif" font-size="14.00">Y</text>
</g>
<!-- n14&#45;&gt;c36 -->
<g id="edge9" class="edge">
<title>n14:e&#45;&gt;c36:w</title>
<path fill="none" stroke="black" d="M330.32,-392.42C350.69,-392.42 332.83,-363.25 348.64,-350.42 452.33,-266.3 560.16,-366.9 633.64,-255.42 654.65,-223.54 622.68,-196.3 651.64,-171.42 697.06,-132.4 854.73,-152.14 924.57,-154.24"/>
<polygon fill="black" stroke="black" points="924.94,-157.75 935,-154.42 925.06,-150.75 924.94,-157.75"/>
</g>
<!-- n14&#45;&gt;c37 -->
<g id="edge10" class="edge">
<title>n14:e&#45;&gt;c37:w</title>
<path fill="none" stroke="black" d="M330.32,-392.42C343.74,-392.42 337.31,-409.23 348.64,-416.42 462.01,-488.3 511.38,-481.81 641.32,-481.43"/>
<polygon fill="black" stroke="black" points="641.65,-484.93 651.64,-481.42 641.64,-477.93 641.65,-484.93"/>
</g>
<!-- x2 -->
<g id="node29" class="node">
<title>x2</title>
<path fill="none" stroke="black" d="M1110,-381.42C1110,-381.42 1080,-381.42 1080,-381.42 1074,-381.42 1068,-375.42 1068,-369.42 1068,-369.42 1068,-357.42 1068,-357.42 1068,-351.42 1074,-345.42 1080,-345.42 1080,-345.42 1110,-345.42 1110,-345.42 1116,-345.42 1122,-351.42 1122,-357.42 1122,-357.42 1122,-369.42 1122,-369.42 1122,-375.42 1116,-381.42 1110,-381.42"/>
<text text-anchor="middle" x="1095" y="-359.72" font-family="Times,serif" font-size="14.00">BUF</text>
</g>
<!-- n14&#45;&gt;x2 -->
<g id="edge11" class="edge">
<title>n14:e&#45;&gt;x2:w</title>
<path fill="none" stroke="black" d="M330.32,-392.42C338.66,-392.42 340.46,-390 348.64,-388.42 411.26,-376.28 426.35,-364.42 490.14,-364.42 490.14,-364.42 490.14,-364.42 851.82,-364.42 944.43,-364.42 970.09,-363.49 1057.86,-363.42"/>
<polygon fill="black" stroke="black" points="1058,-366.92 1068,-363.42 1058,-359.92 1058,-366.92"/>
</g>
<!-- n15 -->
<g id="node7" class="node">
<title>n15</title>
<polygon fill="none" stroke="black" points="307.94,-618.96 307.94,-633.87 224.4,-644.42 106.25,-644.42 22.7,-633.87 22.7,-618.96 106.25,-608.42 224.4,-608.42 307.94,-618.96"/>
<text text-anchor="middle" x="165.32" y="-622.72" font-family="Times,serif" font-size="14.00">IS_A_JALR_INSTRUCTION</text>
</g>
<!-- c29 -->
<g id="node18" class="node">
<title>c29</title>
<polygon fill="none" stroke="black" points="651.64,-668.42 651.64,-714.42 766.64,-714.42 766.64,-668.42 651.64,-668.42"/>
<text text-anchor="middle" x="665.14" y="-699.22" font-family="Times,serif" font-size="14.00">A</text>
<polyline fill="none" stroke="black" points="651.64,-691.42 678.64,-691.42 "/>
<text text-anchor="middle" x="665.14" y="-676.22" font-family="Times,serif" font-size="14.00">B</text>
<polyline fill="none" stroke="black" points="678.64,-668.42 678.64,-714.42 "/>
<text text-anchor="middle" x="709.64" y="-695.22" font-family="Times,serif" font-size="14.00">$4420</text>
<text text-anchor="middle" x="709.64" y="-680.22" font-family="Times,serif" font-size="14.00">$and</text>
<polyline fill="none" stroke="black" points="740.64,-668.42 740.64,-714.42 "/>
<text text-anchor="middle" x="753.64" y="-687.72" font-family="Times,serif" font-size="14.00">Y</text>
</g>
<!-- n15&#45;&gt;c29 -->
<g id="edge12" class="edge">
<title>n15:e&#45;&gt;c29:w</title>
<path fill="none" stroke="black" d="M309.32,-626.42C340.05,-626.42 391.45,-698.83 420.64,-708.42 514.87,-739.38 546.77,-705.87 641.36,-703.54"/>
<polygon fill="black" stroke="black" points="641.69,-707.04 651.64,-703.42 641.6,-700.04 641.69,-707.04"/>
</g>
<!-- c31 -->
<g id="node19" class="node">
<title>c31</title>
<polygon fill="none" stroke="black" points="433.64,-162.92 433.64,-231.92 548.64,-231.92 548.64,-162.92 433.64,-162.92"/>
<text text-anchor="middle" x="447.14" y="-216.72" font-family="Times,serif" font-size="14.00">A</text>
<polyline fill="none" stroke="black" points="433.64,-208.92 460.64,-208.92 "/>
<text text-anchor="middle" x="447.14" y="-193.72" font-family="Times,serif" font-size="14.00">B</text>
<polyline fill="none" stroke="black" points="433.64,-185.92 460.64,-185.92 "/>
<text text-anchor="middle" x="447.14" y="-170.72" font-family="Times,serif" font-size="14.00">S</text>
<polyline fill="none" stroke="black" points="460.64,-162.92 460.64,-231.92 "/>
<text text-anchor="middle" x="491.64" y="-201.22" font-family="Times,serif" font-size="14.00">$4429</text>
<text text-anchor="middle" x="491.64" y="-186.22" font-family="Times,serif" font-size="14.00">$mux</text>
<polyline fill="none" stroke="black" points="522.64,-162.92 522.64,-231.92 "/>
<text text-anchor="middle" x="535.64" y="-193.72" font-family="Times,serif" font-size="14.00">Y</text>
</g>
<!-- n15&#45;&gt;c31 -->
<g id="edge13" class="edge">
<title>n15:e&#45;&gt;c31:w</title>
<path fill="none" stroke="black" d="M309.32,-626.42C326.78,-626.42 323.75,-609.46 330.64,-593.42 339.32,-573.22 397.41,-237.03 425.41,-182.01"/>
<polygon fill="black" stroke="black" points="428.13,-184.22 432.14,-174.42 422.89,-179.58 428.13,-184.22"/>
</g>
<!-- c34 -->
<g id="node23" class="node">
<title>c34</title>
<polygon fill="none" stroke="black" points="433.64,-595.42 433.64,-641.42 548.64,-641.42 548.64,-595.42 433.64,-595.42"/>
<text text-anchor="middle" x="447.14" y="-626.22" font-family="Times,serif" font-size="14.00">A</text>
<polyline fill="none" stroke="black" points="433.64,-618.42 460.64,-618.42 "/>
<text text-anchor="middle" x="447.14" y="-603.22" font-family="Times,serif" font-size="14.00">B</text>
<polyline fill="none" stroke="black" points="460.64,-595.42 460.64,-641.42 "/>
<text text-anchor="middle" x="491.64" y="-622.22" font-family="Times,serif" font-size="14.00">$4465</text>
<text text-anchor="middle" x="491.64" y="-607.22" font-family="Times,serif" font-size="14.00">$or</text>
<polyline fill="none" stroke="black" points="522.64,-595.42 522.64,-641.42 "/>
<text text-anchor="middle" x="535.64" y="-614.72" font-family="Times,serif" font-size="14.00">Y</text>
</g>
<!-- n15&#45;&gt;c34 -->
<g id="edge14" class="edge">
<title>n15:e&#45;&gt;c34:w</title>
<path fill="none" stroke="black" d="M309.32,-626.42C360.42,-626.42 375.6,-629.92 422.07,-630.37"/>
<polygon fill="black" stroke="black" points="422.12,-633.87 432.14,-630.42 422.16,-626.87 422.12,-633.87"/>
</g>
<!-- n16 -->
<g id="node8" class="node">
<title>n16</title>
<polygon fill="none" stroke="black" points="300.46,-558.96 300.46,-573.87 221.3,-584.42 109.34,-584.42 30.18,-573.87 30.18,-558.96 109.34,-548.42 221.3,-548.42 300.46,-558.96"/>
<text text-anchor="middle" x="165.32" y="-562.72" font-family="Times,serif" font-size="14.00">IS_A_JAL_INSTRUCTION</text>
</g>
<!-- c32 -->
<g id="node21" class="node">
<title>c32</title>
<polygon fill="none" stroke="black" points="935,-574.92 935,-643.92 1050,-643.92 1050,-574.92 935,-574.92"/>
<text text-anchor="middle" x="948.5" y="-628.72" font-family="Times,serif" font-size="14.00">A</text>
<polyline fill="none" stroke="black" points="935,-620.92 962,-620.92 "/>
<text text-anchor="middle" x="948.5" y="-605.72" font-family="Times,serif" font-size="14.00">B</text>
<polyline fill="none" stroke="black" points="935,-597.92 962,-597.92 "/>
<text text-anchor="middle" x="948.5" y="-582.72" font-family="Times,serif" font-size="14.00">S</text>
<polyline fill="none" stroke="black" points="962,-574.92 962,-643.92 "/>
<text text-anchor="middle" x="993" y="-613.22" font-family="Times,serif" font-size="14.00">$4453</text>
<text text-anchor="middle" x="993" y="-598.22" font-family="Times,serif" font-size="14.00">$mux</text>
<polyline fill="none" stroke="black" points="1024,-574.92 1024,-643.92 "/>
<text text-anchor="middle" x="1037" y="-605.72" font-family="Times,serif" font-size="14.00">Y</text>
</g>
<!-- n16&#45;&gt;c32 -->
<g id="edge15" class="edge">
<title>n16:e&#45;&gt;c32:w</title>
<path fill="none" stroke="black" d="M301.32,-566.42C579.66,-566.42 651.48,-585.93 924.78,-586.41"/>
<polygon fill="black" stroke="black" points="925,-589.91 935,-586.42 925,-582.91 925,-589.91"/>
</g>
<!-- n16&#45;&gt;c33 -->
<g id="edge16" class="edge">
<title>n16:e&#45;&gt;c33:w</title>
<path fill="none" stroke="black" d="M301.32,-566.42C348.69,-566.42 609.68,-340.28 633.64,-299.42 643.93,-281.87 632.51,-217.76 643.17,-198.15"/>
<polygon fill="black" stroke="black" points="645.32,-200.92 651.64,-192.42 641.4,-195.12 645.32,-200.92"/>
</g>
<!-- n16&#45;&gt;c34 -->
<g id="edge17" class="edge">
<title>n16:e&#45;&gt;c34:w</title>
<path fill="none" stroke="black" d="M301.32,-566.42C307.79,-566.42 392.6,-595.42 422.32,-604.04"/>
<polygon fill="black" stroke="black" points="421.6,-607.46 432.14,-606.42 423.25,-600.66 421.6,-607.46"/>
</g>
<!-- n17 -->
<g id="node9" class="node">
<title>n17</title>
<polygon fill="none" stroke="black" points="329.15,-672.96 329.15,-687.87 233.18,-698.42 97.46,-698.42 1.49,-687.87 1.49,-672.96 97.46,-662.42 233.18,-662.42 329.15,-672.96"/>
<text text-anchor="middle" x="165.32" y="-676.72" font-family="Times,serif" font-size="14.00">JALR_PREDICTION_CORRECT</text>
</g>
<!-- c26 -->
<g id="node16" class="node">
<title>c26</title>
<polygon fill="none" stroke="black" points="420.64,-660.42 420.64,-698.42 561.64,-698.42 561.64,-660.42 420.64,-660.42"/>
<text text-anchor="middle" x="433.64" y="-675.72" font-family="Times,serif" font-size="14.00">A</text>
<polyline fill="none" stroke="black" points="446.64,-660.42 446.64,-698.42 "/>
<text text-anchor="middle" x="491.14" y="-683.22" font-family="Times,serif" font-size="14.00">$2441</text>
<text text-anchor="middle" x="491.14" y="-668.22" font-family="Times,serif" font-size="14.00">$logic_not</text>
<polyline fill="none" stroke="black" points="535.64,-660.42 535.64,-698.42 "/>
<text text-anchor="middle" x="548.64" y="-675.72" font-family="Times,serif" font-size="14.00">Y</text>
</g>
<!-- n17&#45;&gt;c26 -->
<g id="edge18" class="edge">
<title>n17:e&#45;&gt;c26:w</title>
<path fill="none" stroke="black" d="M330.32,-680.42C366.86,-680.42 378.45,-679.59 410.51,-679.44"/>
<polygon fill="black" stroke="black" points="410.65,-682.94 420.64,-679.42 410.63,-675.94 410.65,-682.94"/>
</g>
<!-- n18 -->
<g id="node10" class="node">
<title>n18</title>
<polygon fill="none" stroke="black" points="247.44,-152.96 247.44,-167.87 199.34,-178.42 131.31,-178.42 83.2,-167.87 83.2,-152.96 131.31,-142.42 199.34,-142.42 247.44,-152.96"/>
<text text-anchor="middle" x="165.32" y="-156.72" font-family="Times,serif" font-size="14.00">JALR_TARGET</text>
</g>
<!-- n18&#45;&gt;c31 -->
<g id="edge19" class="edge">
<title>n18:e&#45;&gt;c31:w</title>
<path fill="none" stroke="black" stroke-width="3" d="M248.32,-160.42C328.08,-160.42 347.21,-194.31 421.75,-197.22"/>
<polygon fill="black" stroke="black" stroke-width="3" points="422.08,-200.73 432.14,-197.42 422.21,-193.73 422.08,-200.73"/>
<text text-anchor="middle" x="375.64" y="-200.22" font-family="Times,serif" font-size="14.00">&lt;64&gt;</text>
</g>
<!-- n19 -->
<g id="node11" class="node">
<title>n19</title>
<polygon fill="none" stroke="black" points="230.26,-206.96 230.26,-221.87 192.22,-232.42 138.42,-232.42 100.38,-221.87 100.38,-206.96 138.42,-196.42 192.22,-196.42 230.26,-206.96"/>
<text text-anchor="middle" x="165.32" y="-210.72" font-family="Times,serif" font-size="14.00">PC_ADD_4</text>
</g>
<!-- n19&#45;&gt;c31 -->
<g id="edge20" class="edge">
<title>n19:e&#45;&gt;c31:w</title>
<path fill="none" stroke="black" stroke-width="3" d="M231.32,-214.42C317.13,-214.42 341.01,-219.96 421.98,-220.39"/>
<polygon fill="black" stroke="black" stroke-width="3" points="422.13,-223.89 432.14,-220.42 422.15,-216.89 422.13,-223.89"/>
<text text-anchor="middle" x="375.64" y="-224.22" font-family="Times,serif" font-size="14.00">&lt;64&gt;</text>
</g>
<!-- n19&#45;&gt;c38 -->
<g id="edge21" class="edge">
<title>n19:e&#45;&gt;c38:w</title>
<path fill="none" stroke="black" stroke-width="3" d="M231.32,-214.42C277.07,-214.42 298.34,-219.81 330.64,-187.42 352.41,-165.58 324.17,-139.18 348.64,-120.42 367.69,-105.81 379.09,-115.81 402.64,-120.42 412.41,-122.33 416.03,-127.49 422.24,-130.38"/>
<polygon fill="black" stroke="black" stroke-width="3" points="421.64,-133.83 432.14,-132.42 423.05,-126.97 421.64,-133.83"/>
<text text-anchor="middle" x="375.64" y="-124.22" font-family="Times,serif" font-size="14.00">&lt;64&gt;</text>
</g>
<!-- n20 -->
<g id="node12" class="node">
<title>n20</title>
<polygon fill="none" stroke="black" points="330.46,-260.96 330.46,-275.87 233.72,-286.42 96.92,-286.42 0.18,-275.87 0.18,-260.96 96.92,-250.42 233.72,-250.42 330.46,-260.96"/>
<text text-anchor="middle" x="165.32" y="-264.72" font-family="Times,serif" font-size="14.00">PREDICTED_BRANCH_TAKEN</text>
</g>
<!-- n20&#45;&gt;c28 -->
<g id="edge23" class="edge">
<title>n20:e&#45;&gt;c28:w</title>
<path fill="none" stroke="black" d="M330.64,-268.42C372.3,-268.42 385.01,-263.32 422.14,-262.52"/>
<polygon fill="black" stroke="black" points="422.18,-266.02 432.14,-262.42 422.11,-259.02 422.18,-266.02"/>
</g>
<!-- n21 -->
<g id="node13" class="node">
<title>n21</title>
<polygon fill="none" stroke="black" points="1630.24,-480.96 1630.24,-495.87 1540.49,-506.42 1413.55,-506.42 1323.8,-495.87 1323.8,-480.96 1413.55,-470.42 1540.49,-470.42 1630.24,-480.96"/>
<text text-anchor="middle" x="1477.02" y="-484.72" font-family="Times,serif" font-size="14.00">PREDICTION_WAS_WRONG</text>
</g>
<!-- n22 -->
<g id="node14" class="node">
<title>n22</title>
<polygon fill="none" stroke="black" points="1649.23,-354.96 1649.23,-369.87 1548.35,-380.42 1405.69,-380.42 1304.81,-369.87 1304.81,-354.96 1405.69,-344.42 1548.35,-344.42 1649.23,-354.96"/>
<text text-anchor="middle" x="1477.02" y="-358.72" font-family="Times,serif" font-size="14.00">UPDATE_BRANCH_PREDICTOR</text>
</g>
<!-- n23 -->
<g id="node15" class="node">
<title>n23</title>
<polygon fill="none" stroke="black" points="850.82,-783.42 784.46,-765.42 850.82,-747.42 917.18,-765.42 850.82,-783.42"/>
<text text-anchor="middle" x="850.82" y="-761.72" font-family="Times,serif" font-size="14.00">_sv2v_0</text>
</g>
<!-- c26&#45;&gt;c29 -->
<g id="edge30" class="edge">
<title>c26:e&#45;&gt;c29:w</title>
<path fill="none" stroke="black" d="M561.64,-679.42C598.05,-679.42 609.6,-679.42 641.54,-679.42"/>
<polygon fill="black" stroke="black" points="641.64,-682.92 651.64,-679.42 641.64,-675.92 641.64,-682.92"/>
</g>
<!-- c28&#45;&gt;c35 -->
<g id="edge31" class="edge">
<title>c28:e&#45;&gt;c35:w</title>
<path fill="none" stroke="black" d="M550.14,-274.42C817.32,-274.42 868.12,-421.61 1129.8,-425.35"/>
<polygon fill="black" stroke="black" points="1129.98,-428.85 1140,-425.42 1130.03,-421.85 1129.98,-428.85"/>
</g>
<!-- c29&#45;&gt;c32 -->
<g id="edge29" class="edge">
<title>c29:e&#45;&gt;c32:w</title>
<path fill="none" stroke="black" d="M766.64,-691.42C842.37,-691.42 854.69,-637.6 924.72,-632.76"/>
<polygon fill="black" stroke="black" points="925.12,-636.25 935,-632.42 924.89,-629.26 925.12,-636.25"/>
</g>
<!-- c31&#45;&gt;c33 -->
<g id="edge28" class="edge">
<title>c31:e&#45;&gt;c33:w</title>
<path fill="none" stroke="black" stroke-width="3" d="M550.14,-197.42C595.18,-197.42 602.12,-232.56 641.51,-237.77"/>
<polygon fill="black" stroke="black" stroke-width="3" points="641.44,-241.28 651.64,-238.42 641.88,-234.29 641.44,-241.28"/>
<text text-anchor="middle" x="606.64" y="-240.22" font-family="Times,serif" font-size="14.00">&lt;64&gt;</text>
</g>
<!-- v0 -->
<g id="node20" class="node">
<title>v0</title>
<ellipse fill="none" stroke="black" cx="709.14" cy="-613.42" rx="27" ry="18"/>
<text text-anchor="middle" x="709.14" y="-609.72" font-family="Times,serif" font-size="14.00">1&#39;0</text>
</g>
<!-- v0&#45;&gt;c32 -->
<g id="edge36" class="edge">
<title>v0:e&#45;&gt;c32:w</title>
<path fill="none" stroke="black" d="M737.14,-613.42C821.66,-613.42 845.23,-609.72 924.99,-609.44"/>
<polygon fill="black" stroke="black" points="925.01,-612.94 935,-609.42 924.99,-605.94 925.01,-612.94"/>
</g>
<!-- c32&#45;&gt;c35 -->
<g id="edge27" class="edge">
<title>c32:e&#45;&gt;c35:w</title>
<path fill="none" stroke="black" d="M1050,-609.42C1087.47,-609.42 1097.39,-474.9 1130.12,-451.78"/>
<polygon fill="black" stroke="black" points="1131.66,-454.95 1140,-448.42 1129.41,-448.33 1131.66,-454.95"/>
</g>
<!-- c33&#45;&gt;c36 -->
<g id="edge1" class="edge">
<title>c33:e&#45;&gt;c36:w</title>
<path fill="none" stroke="black" stroke-width="3" d="M766.64,-215.42C838.24,-215.42 858.05,-201.79 924.8,-200.51"/>
<polygon fill="black" stroke="black" stroke-width="3" points="925.03,-204.01 935,-200.42 924.97,-197.01 925.03,-204.01"/>
<text text-anchor="middle" x="850.82" y="-219.22" font-family="Times,serif" font-size="14.00">&lt;64&gt;</text>
</g>
<!-- c34&#45;&gt;c37 -->
<g id="edge22" class="edge">
<title>c34:e&#45;&gt;c37:w</title>
<path fill="none" stroke="black" d="M550.14,-618.42C607.06,-618.42 593.14,-538.1 641.48,-528.38"/>
<polygon fill="black" stroke="black" points="642.02,-531.84 651.64,-527.42 641.36,-524.87 642.02,-531.84"/>
</g>
<!-- c35&#45;&gt;n13 -->
<g id="edge6" class="edge">
<title>c35:e&#45;&gt;n13:w</title>
<path fill="none" stroke="black" d="M1255,-425.42C1328.49,-425.42 1349.24,-430.89 1417.99,-431.38"/>
<polygon fill="black" stroke="black" points="1418.01,-434.88 1428.02,-431.42 1418.03,-427.88 1418.01,-434.88"/>
</g>
<!-- c36&#45;&gt;n10 -->
<g id="edge2" class="edge">
<title>c36:e&#45;&gt;n10:w</title>
<path fill="none" stroke="black" stroke-width="3" d="M1050,-177.42C1189.19,-177.42 1226.54,-177.42 1360.76,-177.42"/>
<polygon fill="black" stroke="black" stroke-width="3" points="1361.02,-180.92 1371.02,-177.42 1361.02,-173.92 1361.02,-180.92"/>
<text text-anchor="middle" x="1197.5" y="-181.22" font-family="Times,serif" font-size="14.00">&lt;64&gt;</text>
</g>
<!-- c37&#45;&gt;n12 -->
<g id="edge5" class="edge">
<title>c37:e&#45;&gt;n12:w</title>
<path fill="none" stroke="black" d="M766.64,-504.42C997.31,-504.42 1056.19,-541.31 1281.83,-542.39"/>
<polygon fill="black" stroke="black" points="1281.99,-545.89 1292,-542.42 1282.01,-538.89 1281.99,-545.89"/>
</g>
<!-- c38&#45;&gt;c36 -->
<g id="edge32" class="edge">
<title>c38:e&#45;&gt;c36:w</title>
<path fill="none" stroke="black" stroke-width="3" d="M550.14,-109.42C720.45,-109.42 759.79,-174.79 924.98,-177.34"/>
<polygon fill="black" stroke="black" stroke-width="3" points="924.97,-180.84 935,-177.42 925.03,-173.84 924.97,-180.84"/>
<text text-anchor="middle" x="709.14" y="-154.22" font-family="Times,serif" font-size="14.00">&lt;64&gt;</text>
</g>
<!-- x1&#45;&gt;n21 -->
<g id="edge24" class="edge">
<title>x1:e&#45;&gt;n21:w</title>
<path fill="none" stroke="black" d="M1225.5,-496.42C1264.85,-496.42 1276.94,-489.73 1311.6,-488.59"/>
<polygon fill="black" stroke="black" points="1312.08,-492.08 1322.02,-488.42 1311.96,-485.08 1312.08,-492.08"/>
</g>
<!-- x2&#45;&gt;n22 -->
<g id="edge25" class="edge">
<title>x2:e&#45;&gt;n22:w</title>
<path fill="none" stroke="black" d="M1122,-363.42C1199,-363.42 1220.73,-362.5 1292.97,-362.42"/>
<polygon fill="black" stroke="black" points="1293.02,-365.92 1303.02,-362.42 1293.02,-358.92 1293.02,-365.92"/>
</g>
<!-- v3 -->
<g id="node30" class="node">
<title>v3</title>
<ellipse fill="none" stroke="black" cx="375.64" cy="-765.42" rx="27" ry="18"/>
<text text-anchor="middle" x="375.64" y="-761.72" font-family="Times,serif" font-size="14.00">1&#39;0</text>
</g>
<!-- x4 -->
<g id="node31" class="node">
<title>x4</title>
<path fill="none" stroke="black" d="M621.64,-783.42C621.64,-783.42 591.64,-783.42 591.64,-783.42 585.64,-783.42 579.64,-777.42 579.64,-771.42 579.64,-771.42 579.64,-759.42 579.64,-759.42 579.64,-753.42 585.64,-747.42 591.64,-747.42 591.64,-747.42 621.64,-747.42 621.64,-747.42 627.64,-747.42 633.64,-753.42 633.64,-759.42 633.64,-759.42 633.64,-771.42 633.64,-771.42 633.64,-777.42 627.64,-783.42 621.64,-783.42"/>
<text text-anchor="middle" x="606.64" y="-761.72" font-family="Times,serif" font-size="14.00">BUF</text>
</g>
<!-- v3&#45;&gt;x4 -->
<g id="edge37" class="edge">
<title>v3:e&#45;&gt;x4:w</title>
<path fill="none" stroke="black" d="M402.64,-765.42C477.77,-765.42 499.09,-765.42 569.39,-765.42"/>
<polygon fill="black" stroke="black" points="569.64,-768.92 579.64,-765.42 569.64,-761.92 569.64,-768.92"/>
</g>
<!-- x4&#45;&gt;n23 -->
<g id="edge26" class="edge">
<title>x4:e&#45;&gt;n23:w</title>
<path fill="none" stroke="black" d="M633.64,-765.42C697.21,-765.42 715.62,-765.42 774.43,-765.42"/>
<polygon fill="black" stroke="black" points="774.64,-768.92 784.64,-765.42 774.64,-761.92 774.64,-768.92"/>
</g>
</g>
</svg>
